<svg width="40" height="40" viewBox="0 0 40 40" fill="none" xmlns="http://www.w3.org/2000/svg">
<path opacity="0.4" d="M36.9665 22.7666C36.7165 20.0166 35.9832 17.0833 30.6331 17.0833H9.36648C4.01648 17.0833 3.29982 20.0166 3.03315 22.7666L2.09982 32.9166C1.98315 34.1833 2.39982 35.4499 3.26648 36.3999C4.14982 37.3666 5.39982 37.9166 6.73315 37.9166H9.86648C12.5665 37.9166 13.0832 36.3666 13.4165 35.3499L13.7498 34.3499C14.1332 33.1999 14.2331 32.9166 15.7331 32.9166H24.2665C25.7665 32.9166 25.8165 33.0833 26.2498 34.3499L26.5832 35.3499C26.9165 36.3666 27.4331 37.9166 30.1332 37.9166H33.2665C34.5831 37.9166 35.8498 37.3666 36.7332 36.3999C37.5998 35.4499 38.0165 34.1833 37.8998 32.9166L36.9665 22.7666Z" fill="#6551FF"/>
<path d="M35 12.0832H33.3333C33.3167 12.0832 33.3167 12.0832 33.3 12.0832L32.6667 9.06655C32.0667 6.14989 30.8167 3.46655 25.85 3.46655H21.25H18.75H14.15C9.18333 3.46655 7.93333 6.14989 7.33333 9.06655L6.7 12.0832C6.68333 12.0832 6.68333 12.0832 6.66667 12.0832H5C4.31667 12.0832 3.75 12.6499 3.75 13.3332C3.75 14.0166 4.31667 14.5832 5 14.5832H6.18333L5.48333 17.9166C6.38333 17.3999 7.63333 17.0832 9.36667 17.0832H30.6333C32.3667 17.0832 33.6167 17.3999 34.5167 17.9166L33.8167 14.5832H35C35.6833 14.5832 36.25 14.0166 36.25 13.3332C36.25 12.6499 35.6833 12.0832 35 12.0832Z" fill="#6551FF"/>
<path d="M15 26.25H10C9.31667 26.25 8.75 25.6833 8.75 25C8.75 24.3167 9.31667 23.75 10 23.75H15C15.6833 23.75 16.25 24.3167 16.25 25C16.25 25.6833 15.6833 26.25 15 26.25Z" fill="#6551FF"/>
<path d="M30 26.25H25C24.3167 26.25 23.75 25.6833 23.75 25C23.75 24.3167 24.3167 23.75 25 23.75H30C30.6833 23.75 31.25 24.3167 31.25 25C31.25 25.6833 30.6833 26.25 30 26.25Z" fill="#6551FF"/>
</svg>
