<svg width="40" height="40" viewBox="0 0 40 40" fill="none" xmlns="http://www.w3.org/2000/svg">
<path opacity="0.4" d="M26.6668 3.33325H10.0002C4.66683 3.33325 3.3335 4.66659 3.3335 9.99992V19.8333C3.3835 24.8833 4.7835 26.1666 10.0002 26.1666H13.7502V32.0833H8.25018C7.56685 32.0833 7.00018 32.6499 7.00018 33.3332C7.00018 34.0166 7.56685 34.5832 8.25018 34.5832H20.4168C20.1668 33.9332 20.0501 33.1166 20.0335 32.0833H16.2502V26.1666H20.0335V19.8333V17.65C20.0335 14.0833 21.2168 12.8999 24.7835 12.8999H31.9168C32.4335 12.8999 32.9168 12.9332 33.3335 12.9832V9.99992C33.3335 4.66659 32.0002 3.33325 26.6668 3.33325Z" fill="#6551FF"/>
<path d="M33.3332 12.9832C32.9166 12.9332 32.4332 12.8999 31.9165 12.8999H24.7832C21.2165 12.8999 20.0332 14.0833 20.0332 17.65V32.0833C20.0499 33.1166 20.1666 33.9333 20.4166 34.5833C20.9999 36.0999 22.3165 36.6666 24.7832 36.6666H31.9165C35.4832 36.6666 36.6666 35.4833 36.6666 31.9166V17.65C36.6666 14.6 35.7999 13.2999 33.3332 12.9832ZM28.3499 16.8166C29.7999 16.8166 30.9665 17.9832 30.9665 19.4332C30.9665 20.8832 29.7999 22.0499 28.3499 22.0499C26.8999 22.0499 25.7332 20.8832 25.7332 19.4332C25.7332 17.9832 26.8999 16.8166 28.3499 16.8166ZM28.3499 31.9166C26.3832 31.9166 24.7832 30.3166 24.7832 28.3499C24.7832 27.5333 25.0666 26.7666 25.5332 26.1666C26.1832 25.3333 27.1999 24.7832 28.3499 24.7832C29.2499 24.7832 30.0666 25.1166 30.6832 25.6499C31.4332 26.3166 31.9165 27.2833 31.9165 28.3499C31.9165 30.3166 30.3166 31.9166 28.3499 31.9166Z" fill="#6551FF"/>
<path opacity="0.4" d="M31.9165 28.3499C31.9165 30.3166 30.3166 31.9166 28.3499 31.9166C26.3832 31.9166 24.7832 30.3166 24.7832 28.3499C24.7832 27.5332 25.0666 26.7666 25.5332 26.1666C26.1832 25.3332 27.1999 24.7832 28.3499 24.7832C29.2499 24.7832 30.0666 25.1166 30.6832 25.6499C31.4332 26.3166 31.9165 27.2832 31.9165 28.3499Z" fill="#6551FF"/>
<path opacity="0.4" d="M28.35 22.0499C29.7952 22.0499 30.9666 20.8784 30.9666 19.4332C30.9666 17.9881 29.7952 16.8167 28.35 16.8167C26.9049 16.8167 25.7333 17.9881 25.7333 19.4332C25.7333 20.8784 26.9049 22.0499 28.35 22.0499Z" fill="#6551FF"/>
</svg>
