<svg width="40" height="40" viewBox="0 0 40 40" fill="none" xmlns="http://www.w3.org/2000/svg">
<path opacity="0.58" d="M40 0H0V40H40V0Z" fill="white"/>
<path fill-rule="evenodd" clip-rule="evenodd" d="M26.4667 34.8667C26.5167 35.1334 26.3667 35.4167 26.1167 35.5167C24.2167 36.2667 22.1667 36.6667 20.0167 36.6667C16.35 36.6667 12.9333 35.4834 10.1833 33.45C9.95001 33.2834 9.88334 32.95 10.0333 32.7C10.95 31.0667 14.5333 25.8167 22.45 22.8833C22.75 22.7667 23.0833 22.9167 23.1833 23.2167C25.1833 28.5334 26.1167 33.0334 26.4667 34.8667Z" fill="#6551FF"/>
<path fill-rule="evenodd" clip-rule="evenodd" d="M36.3667 23.1499C35.6 27.2499 33.3 30.8165 30.0833 33.2499C29.7333 33.5165 29.2333 33.3165 29.15 32.8999C28.8 31.0999 27.95 27.2165 26.3167 22.5999C26.2 22.2499 26.4333 21.8666 26.8 21.8166C30.95 21.3166 34.5833 22.1166 35.95 22.4832C36.2333 22.5832 36.4167 22.8666 36.3667 23.1499Z" fill="#6551FF"/>
<path opacity="0.4" fill-rule="evenodd" clip-rule="evenodd" d="M35.9833 19.6999C34.2833 19.3999 29.95 18.7666 25.5167 19.2499C25.25 19.2832 25.0167 19.1332 24.9 18.8832C24.8333 18.7332 24.7833 18.5832 24.7167 18.4332C24.45 17.8166 24.1667 17.1832 23.8833 16.5666C23.7333 16.2666 23.8833 15.8999 24.1833 15.7666C28.85 13.7499 31.45 11.1499 32.4667 9.98325C32.7167 9.69991 33.15 9.71658 33.3833 10.0166C35.3 12.5666 36.4833 15.6832 36.6667 19.0499C36.6833 19.4666 36.35 19.7666 35.9833 19.6999Z" fill="#6551FF"/>
<path fill-rule="evenodd" clip-rule="evenodd" d="M30.7333 7.98325C29.8667 9.03325 27.4333 11.5333 22.8167 13.3666C22.55 13.4833 22.2333 13.3666 22.0833 13.0999C19.95 9.23325 17.6833 5.98325 16.6333 4.51659C16.3833 4.14992 16.5833 3.66659 17.0167 3.58325C17.9833 3.41659 18.9833 3.33325 20.0167 3.33325C24.05 3.33325 27.7667 4.76659 30.65 7.16659C30.9 7.36659 30.9333 7.73325 30.7333 7.98325Z" fill="#6551FF"/>
<path fill-rule="evenodd" clip-rule="evenodd" d="M18.3667 14.7333C12.05 16.3166 6.46668 16.5333 4.43335 16.5666C4.05001 16.5666 3.76668 16.1999 3.86668 15.8333C5.06668 11.1666 8.26668 7.26661 12.4833 5.11661C12.7333 4.98328 13.05 5.06661 13.2167 5.29995C14.0833 6.49995 16.4333 9.88328 18.7333 13.8666C18.9167 14.1999 18.75 14.6333 18.3667 14.7333Z" fill="#6551FF"/>
<path opacity="0.4" fill-rule="evenodd" clip-rule="evenodd" d="M21.5333 19.3332C21.6833 19.6499 21.5 20.0332 21.1667 20.1499C13.7833 22.5332 9.36668 28.4499 8.03334 30.4832C7.81668 30.8166 7.35001 30.8332 7.10001 30.5332C4.75001 27.6666 3.33334 24.3832 3.33334 20.3832V20.0832C3.33334 19.7499 3.60001 19.4832 3.93334 19.4999C6.03334 19.5832 12.8833 19.2999 20 17.2499C20.2667 17.1666 20.5667 17.2999 20.6833 17.5499C20.9833 18.1499 21.2667 18.7332 21.5333 19.3332Z" fill="#6551FF"/>
</svg>
