<svg width="48" height="40" viewBox="0 0 48 40" fill="none" xmlns="http://www.w3.org/2000/svg">
<path d="M44.3226 28.5H43.6452V22.3182C43.6442 21.4988 43.3584 20.7132 42.8505 20.1338C42.3425 19.5543 41.6538 19.2283 40.9355 19.2273V6.09091C40.9345 5.27148 40.6488 4.48592 40.1408 3.90649C39.6328 3.32707 38.9442 3.00107 38.2258 3H9.77419C9.05583 3.00107 8.36716 3.32707 7.8592 3.90649C7.35124 4.48592 7.06546 5.27148 7.06452 6.09091V19.2273C6.34615 19.2283 5.65748 19.5543 5.14952 20.1338C4.64156 20.7132 4.35578 21.4988 4.35484 22.3182V28.5H3.67742C3.49776 28.5 3.32545 28.5814 3.19841 28.7263C3.07137 28.8712 3 29.0678 3 29.2727V32.3636C3 32.5686 3.07137 32.7651 3.19841 32.91C3.32545 33.055 3.49776 33.1364 3.67742 33.1364H4.35484V36.2273C4.35484 36.4322 4.42621 36.6288 4.55325 36.7737C4.68029 36.9186 4.8526 37 5.03226 37H7.06452C7.22108 37.0001 7.37283 36.9382 7.49388 36.825C7.61494 36.7117 7.69782 36.5541 7.72839 36.3789L8.29742 33.1364H39.7026L40.2716 36.3789C40.3022 36.5541 40.3851 36.7117 40.5061 36.825C40.6272 36.9382 40.7789 37.0001 40.9355 37H42.9677C43.1474 37 43.3197 36.9186 43.4468 36.7737C43.5738 36.6288 43.6452 36.4322 43.6452 36.2273V33.1364H44.3226C44.5022 33.1364 44.6745 33.055 44.8016 32.91C44.9286 32.7651 45 32.5686 45 32.3636V29.2727C45 29.0678 44.9286 28.8712 44.8016 28.7263C44.6745 28.5814 44.5022 28.5 44.3226 28.5ZM8.41935 6.09091C8.41983 5.68119 8.56272 5.28841 8.8167 4.9987C9.07068 4.70899 9.41501 4.54599 9.77419 4.54545H38.2258C38.585 4.54599 38.9293 4.70899 39.1833 4.9987C39.4373 5.28841 39.5802 5.68119 39.5806 6.09091V19.2273H38.2258V16.1364C38.2249 15.3169 37.9391 14.5314 37.4311 13.9519C36.9232 13.3725 36.2345 13.0465 35.5161 13.0455H27.3871C26.6687 13.0465 25.9801 13.3725 25.4721 13.9519C24.9641 14.5314 24.6784 15.3169 24.6774 16.1364V19.2273H23.3226V16.1364C23.3216 15.3169 23.0359 14.5314 22.5279 13.9519C22.0199 13.3725 21.3313 13.0465 20.6129 13.0455H12.4839C11.7655 13.0465 11.0768 13.3725 10.5689 13.9519C10.0609 14.5314 9.77513 15.3169 9.77419 16.1364V19.2273H8.41935V6.09091ZM36.871 16.1364V19.2273H26.0323V16.1364C26.0327 15.7266 26.1756 15.3339 26.4296 15.0442C26.6836 14.7544 27.0279 14.5914 27.3871 14.5909H35.5161C35.8753 14.5914 36.2196 14.7544 36.4736 15.0442C36.7276 15.3339 36.8705 15.7266 36.871 16.1364ZM21.9677 16.1364V19.2273H11.129V16.1364C11.1295 15.7266 11.2724 15.3339 11.5264 15.0442C11.7804 14.7544 12.1247 14.5914 12.4839 14.5909H20.6129C20.9721 14.5914 21.3164 14.7544 21.5704 15.0442C21.8244 15.3339 21.9673 15.7266 21.9677 16.1364ZM5.70968 22.3182C5.71015 21.9085 5.85304 21.5157 6.10702 21.226C6.361 20.9363 6.70534 20.7733 7.06452 20.7727H40.9355C41.2947 20.7733 41.639 20.9363 41.893 21.226C42.147 21.5157 42.2899 21.9085 42.2903 22.3182V28.5H5.70968V22.3182ZM6.50903 35.4545H5.70968V33.1364H6.91548L6.50903 35.4545ZM42.2903 35.4545H41.491L41.0845 33.1364H42.2903V35.4545ZM43.6452 31.5909H4.35484V30.0455H43.6452V31.5909Z" fill="#C1B9FF"/>
<path d="M5.25 22C5.25 20.8954 6.14543 20 7.25 20H41.5C42.6046 20 43.5 20.8954 43.5 22V28.5H5.25V22Z" fill="#C1B9FF"/>
<path d="M8.25 5.8501C8.25 4.74553 9.14543 3.8501 10.25 3.8501H38.5C39.6046 3.8501 40.5 4.74553 40.5 5.8501V20.0001H8.25V5.8501Z" fill="#C1B9FF"/>
<path d="M9.75 14.3501C9.75 13.2455 10.6454 12.3501 11.75 12.3501H22C23.1046 12.3501 24 13.2455 24 14.3501V19.1501H9.75V14.3501Z" fill="#6551FF"/>
<path d="M24.75 14.3501C24.75 13.2455 25.6454 12.3501 26.75 12.3501H37C38.1046 12.3501 39 13.2455 39 14.3501V19.1501H24.75V14.3501Z" fill="#6551FF"/>
<rect x="3" y="28.5" width="42" height="4.25" rx="1" fill="#6551FF" stroke="#6551FF"/>
</svg>
