<svg width="38" height="40" viewBox="0 0 38 40" fill="none" xmlns="http://www.w3.org/2000/svg">
<path opacity="0.4" d="M25.7135 3.33325H12.2868C7.91683 3.33325 6.3335 4.99992 6.3335 9.68325V30.3166C6.3335 34.9999 7.91683 36.6666 12.2868 36.6666H25.6977C30.0835 36.6666 31.6668 34.9999 31.6668 30.3166V9.68325C31.6668 4.99992 30.0835 3.33325 25.7135 3.33325Z" fill="#6551FF"/>
<path d="M22.1668 10.4167H15.8335C15.1843 10.4167 14.646 9.85008 14.646 9.16675C14.646 8.48341 15.1843 7.91675 15.8335 7.91675H22.1668C22.816 7.91675 23.3543 8.48341 23.3543 9.16675C23.3543 9.85008 22.816 10.4167 22.1668 10.4167Z" fill="#6551FF"/>
<path d="M18.9998 32.1666C20.5301 32.1666 21.7707 30.8607 21.7707 29.2499C21.7707 27.6391 20.5301 26.3333 18.9998 26.3333C17.4695 26.3333 16.229 27.6391 16.229 29.2499C16.229 30.8607 17.4695 32.1666 18.9998 32.1666Z" fill="#6551FF"/>
</svg>
