<svg width="40" height="40" viewBox="0 0 40 40" fill="none" xmlns="http://www.w3.org/2000/svg">
<path opacity="0.4" d="M36.6168 10.6833V21.5166H3.3335V10.6833C3.3335 6.63325 6.6335 3.33325 10.6835 3.33325H29.2668C33.3168 3.33325 36.6168 6.63325 36.6168 10.6833Z" fill="#6551FF"/>
<path d="M3.3335 21.5334V21.8668C3.3335 25.9334 6.6335 29.2168 10.6835 29.2168H17.0835C18.0002 29.2168 18.7502 29.9668 18.7502 30.8834V32.5001C18.7502 33.4168 18.0002 34.1668 17.0835 34.1668H13.0502C12.3668 34.1668 11.8002 34.7334 11.8002 35.4168C11.8002 36.1001 12.3502 36.6668 13.0502 36.6668H26.9668C27.6502 36.6668 28.2168 36.1001 28.2168 35.4168C28.2168 34.7334 27.6502 34.1668 26.9668 34.1668H22.9335C22.0168 34.1668 21.2668 33.4168 21.2668 32.5001V30.8834C21.2668 29.9668 22.0168 29.2168 22.9335 29.2168H29.2835C33.3502 29.2168 36.6335 25.9168 36.6335 21.8668V21.5334H3.3335Z" fill="#6551FF"/>
</svg>
