<svg width="40" height="40" viewBox="0 0 40 40" fill="none" xmlns="http://www.w3.org/2000/svg">
<path opacity="0.4" d="M31.7998 26.1999C30.8165 20.3165 25.1665 15.5332 19.1998 15.5332C12.7165 15.5332 7.01648 20.7832 6.46648 27.2499C6.24981 29.7499 7.04981 32.1165 8.69981 33.8999C10.3331 35.6832 12.6331 36.6665 15.1331 36.6665H22.9331C25.7498 36.6665 28.2165 35.5665 29.8998 33.5832C31.5831 31.5999 32.2498 28.9665 31.7998 26.1999Z" fill="#6551FF"/>
<path d="M17.1333 13.0999C19.8303 13.0999 22.0167 10.9136 22.0167 8.21658C22.0167 5.51959 19.8303 3.33325 17.1333 3.33325C14.4363 3.33325 12.25 5.51959 12.25 8.21658C12.25 10.9136 14.4363 13.0999 17.1333 13.0999Z" fill="#6551FF"/>
<path d="M28.2332 15.0501C30.4791 15.0501 32.2998 13.2294 32.2998 10.9834C32.2998 8.73746 30.4791 6.91675 28.2332 6.91675C25.9872 6.91675 24.1665 8.73746 24.1665 10.9834C24.1665 13.2294 25.9872 15.0501 28.2332 15.0501Z" fill="#6551FF"/>
<path d="M34.25 21.55C36.0449 21.55 37.5 20.095 37.5 18.3C37.5 16.5051 36.0449 15.05 34.25 15.05C32.4551 15.05 31 16.5051 31 18.3C31 20.095 32.4551 21.55 34.25 21.55Z" fill="#6551FF"/>
<path d="M6.56667 18.3001C8.81262 18.3001 10.6333 16.4794 10.6333 14.2334C10.6333 11.9875 8.81262 10.1667 6.56667 10.1667C4.32071 10.1667 2.5 11.9875 2.5 14.2334C2.5 16.4794 4.32071 18.3001 6.56667 18.3001Z" fill="#6551FF"/>
</svg>
