<svg width="114" height="24" viewBox="0 0 114 24" fill="none" xmlns="http://www.w3.org/2000/svg">
<path d="M11.1537 11.5892L20.6997 23.6808H13.7663L5.7276 13.0629V23.6808H0V0H5.7276V10.4169L13.8333 0H20.6997L11.1537 11.5892Z" fill="#6551FF"/>
<path d="M40.8779 13.8329C40.8779 14.3018 40.8221 14.8154 40.7104 15.3737H27.748C27.815 16.7805 28.1722 17.7965 28.8198 18.4217C29.4674 19.0246 30.2936 19.326 31.2984 19.326C32.1469 19.326 32.8503 19.1139 33.4086 18.6896C33.9668 18.2654 34.3353 17.7183 34.5139 17.0484H40.5764C40.3308 18.3659 39.7949 19.5493 38.9687 20.5988C38.1425 21.626 37.093 22.4411 35.8202 23.044C34.5474 23.6245 33.1294 23.9148 31.5664 23.9148C29.7353 23.9148 28.1052 23.5352 26.6761 22.776C25.2694 21.9945 24.164 20.878 23.3602 19.4265C22.5563 17.9751 22.1544 16.278 22.1544 14.3353C22.1544 12.3703 22.5451 10.6733 23.3267 9.24415C24.1305 7.79271 25.247 6.68739 26.6761 5.92817C28.1052 5.14663 29.7353 4.75586 31.5664 4.75586C33.4197 4.75586 35.0498 5.13547 36.4566 5.89468C37.8634 6.65389 38.9464 7.72572 39.7056 9.11017C40.4871 10.4723 40.8779 12.0465 40.8779 13.8329ZM35.0833 12.9621C35.1056 11.7339 34.7707 10.8184 34.0785 10.2155C33.4086 9.59026 32.5712 9.27764 31.5664 9.27764C30.5169 9.27764 29.646 9.59026 28.9538 10.2155C28.2616 10.8407 27.8708 11.7562 27.7815 12.9621H35.0833Z" fill="#6551FF"/>
<path d="M61.6156 13.8329C61.6156 14.3018 61.5598 14.8154 61.4481 15.3737H48.4857C48.5527 16.7805 48.91 17.7965 49.5575 18.4217C50.2051 19.0246 51.0313 19.326 52.0361 19.326C52.8847 19.326 53.5881 19.1139 54.1463 18.6896C54.7046 18.2654 55.073 17.7183 55.2516 17.0484H61.3142C61.0685 18.3659 60.5326 19.5493 59.7064 20.5988C58.8802 21.626 57.8307 22.4411 56.5579 23.044C55.2851 23.6245 53.8672 23.9148 52.3041 23.9148C50.4731 23.9148 48.843 23.5352 47.4139 22.776C46.0071 21.9945 44.9018 20.878 44.0979 19.4265C43.294 17.9751 42.8921 16.278 42.8921 14.3353C42.8921 12.3703 43.2829 10.6733 44.0644 9.24415C44.8683 7.79271 45.9848 6.68739 47.4139 5.92817C48.843 5.14663 50.4731 4.75586 52.3041 4.75586C54.1575 4.75586 55.7875 5.13547 57.1943 5.89468C58.6011 6.65389 59.6841 7.72572 60.4433 9.11017C61.2248 10.4723 61.6156 12.0465 61.6156 13.8329ZM55.821 12.9621C55.8434 11.7339 55.5084 10.8184 54.8162 10.2155C54.1463 9.59026 53.3089 9.27764 52.3041 9.27764C51.2546 9.27764 50.3837 9.59026 49.6915 10.2155C48.9993 10.8407 48.6085 11.7562 48.5192 12.9621H55.821Z" fill="#6551FF"/>
<path d="M76.4586 4.78955C78.6022 4.78955 80.2993 5.5041 81.5498 6.93321C82.8226 8.36232 83.4589 10.3273 83.4589 12.8283V23.6806H77.7314V13.4982C77.7314 12.2477 77.3964 11.2764 76.7265 10.5841C76.079 9.86958 75.2081 9.5123 74.1139 9.5123C72.9528 9.5123 72.0261 9.88074 71.3339 10.6176C70.664 11.3545 70.329 12.404 70.329 13.7661V23.6806H64.6014V4.99052H70.329V8.40698C70.8649 7.29049 71.6577 6.40846 72.7072 5.7609C73.779 5.11333 75.0295 4.78955 76.4586 4.78955Z" fill="#6551FF"/>
<path d="M95.9786 4.75586C97.832 4.75586 99.4844 5.14663 100.936 5.92817C102.41 6.68739 103.56 7.79271 104.386 9.24415C105.234 10.6956 105.659 12.3926 105.659 14.3353C105.659 16.278 105.234 17.9751 104.386 19.4265C103.56 20.878 102.41 21.9945 100.936 22.776C99.4844 23.5352 97.832 23.9148 95.9786 23.9148C94.1252 23.9148 92.4617 23.5352 90.9879 22.776C89.5141 21.9945 88.353 20.878 87.5044 19.4265C86.6782 17.9751 86.2651 16.278 86.2651 14.3353C86.2651 12.3926 86.6782 10.6956 87.5044 9.24415C88.353 7.79271 89.5141 6.68739 90.9879 5.92817C92.4617 5.14663 94.1252 4.75586 95.9786 4.75586ZM95.9786 9.71307C94.8844 9.71307 93.9577 10.115 93.1985 10.9189C92.4617 11.7004 92.0932 12.8392 92.0932 14.3353C92.0932 15.8314 92.4617 16.9703 93.1985 17.7518C93.9577 18.5333 94.8844 18.9241 95.9786 18.9241C97.0728 18.9241 97.9883 18.5333 98.7252 17.7518C99.462 16.9703 99.8305 15.8314 99.8305 14.3353C99.8305 12.8392 99.462 11.7004 98.7252 10.9189C97.9883 10.115 97.0728 9.71307 95.9786 9.71307Z" fill="#6551FF"/>
<path d="M113.553 17.9531V23.6807H107.624V17.9531H113.553Z" fill="#6551FF"/>
</svg>
