<svg width="40" height="40" viewBox="0 0 40 40" fill="none" xmlns="http://www.w3.org/2000/svg">
<path opacity="0.4" d="M18.267 3.4333L9.10033 6.86664C7.35033 7.5333 5.91699 9.59997 5.91699 11.4833V24.9833C5.91699 26.3333 6.80033 28.1166 7.88366 28.9166L17.0503 35.7666C18.667 36.9833 21.317 36.9833 22.9337 35.7666L32.1003 28.9166C33.1837 28.1 34.067 26.3333 34.067 24.9833V11.4833C34.067 9.61664 32.6337 7.5333 30.8837 6.8833L21.717 3.44997C20.7837 3.0833 19.217 3.0833 18.267 3.4333Z" fill="#6551FF"/>
<path d="M17.7671 23.7162C17.4504 23.7162 17.1337 23.5995 16.8837 23.3495L14.2004 20.6662C13.7171 20.1829 13.7171 19.3829 14.2004 18.8995C14.6837 18.4162 15.4837 18.4162 15.9671 18.8995L17.7671 20.6995L24.0504 14.4162C24.5337 13.9329 25.3337 13.9329 25.8171 14.4162C26.3004 14.8995 26.3004 15.6995 25.8171 16.1829L18.6504 23.3495C18.4004 23.5995 18.0837 23.7162 17.7671 23.7162Z" fill="#6551FF"/>
</svg>
